<?xml version="1.0" encoding="utf-8"?>
<!-- Generator: Adobe Illustrator 21.0.0, SVG Export Plug-In . SVG Version: 6.00 Build 0)  -->
<svg version="1.1" id="Layer_1" xmlns="http://www.w3.org/2000/svg" xmlns:xlink="http://www.w3.org/1999/xlink" x="0px" y="0px"
	 viewBox="0 0 100 98" style="enable-background:new 0 0 100 98;" xml:space="preserve">
<style type="text/css">
	.st0{fill:#3359DF;}
</style>
<title>Artboard 7</title>
<path class="st0" d="M77.8,43.8c-0.5-0.9-0.2-2.1,0.7-2.7c0.9-0.5,2.1-0.2,2.7,0.7s0.2,2.1-0.7,2.7c0,0,0,0,0,0
	c-0.3,0.2-0.6,0.3-1,0.3C78.7,44.8,78.1,44.4,77.8,43.8z M83.8,58.2H84c1.1-0.1,1.9-1,1.8-2c-0.1-1.1-1-1.9-2-1.8s-1.9,1-1.8,2
	C82,57.4,82.8,58.2,83.8,58.2L83.8,58.2z M63.8,92.8c1.1,0,2-0.8,2-1.9s-0.8-2-1.9-2c-0.3,0-0.6,0.1-0.8,0.2l0,0
	c-1,0.4-1.4,1.6-1,2.6C62.3,92.3,63,92.7,63.8,92.8L63.8,92.8z M68.8,33.9c0.9,0.6,2.1,0.4,2.7-0.4c0.6-0.9,0.4-2.1-0.4-2.7
	c-0.9-0.6-2.1-0.4-2.7,0.4S68,33.3,68.8,33.9C68.8,33.9,68.8,33.9,68.8,33.9z M19,41.8c-0.5,0.9-0.2,2.1,0.7,2.7
	c0.3,0.2,0.6,0.3,0.9,0.3c1.1,0,2-0.8,2-1.9s-0.8-2-1.9-2C20,40.8,19.4,41.2,19,41.8z M50,95.7L50,95.7c1.1,0,1.9-0.9,1.9-2
	c0-1.1-0.9-1.9-2-1.9c-1,0-1.9,0.9-1.9,1.9C48,94.8,48.9,95.7,50,95.7C49.9,95.7,50,95.7,50,95.7z M14.3,56L14.3,56
	c-0.1,1.1,0.6,2,1.7,2.2h0.2c1,0,1.9-0.7,2-1.7l0,0l0,0c0.1-1.1-0.6-2-1.7-2.1S14.4,54.9,14.3,56L14.3,56z M37,89
	c-1-0.4-2.1,0.1-2.5,1.1c-0.4,0.9,0,2,0.9,2.5c0.2,0.1,0.5,0.2,0.8,0.2c1.1,0,2-0.8,2-1.9C38.2,90,37.7,89.3,37,89z M29,30.7
	c-0.9,0.6-1.1,1.8-0.4,2.7c0.6,0.9,1.8,1.1,2.7,0.4c0.9-0.6,1.1-1.8,0.4-2.7c0,0,0,0,0,0C31.1,30.3,29.9,30.1,29,30.7z M67.1,60.9
	v1.6c0,0.6-0.4,1.1-1,1.2l-3.2,0.5c-0.3,1.2-0.8,2.4-1.4,3.4l1.9,2.6c0.3,0.5,0.3,1.1-0.1,1.6L62.1,73L61,74.1
	c-0.4,0.4-1.1,0.5-1.6,0.1l-2.6-1.9c-1,0.6-2.2,1.1-3.3,1.4L52.9,77c-0.1,0.6-0.6,1-1.2,1h-3.2c-0.6,0-1.1-0.4-1.2-1l-0.5-3.2
	c-1.2-0.3-2.4-0.8-3.4-1.4l-2.6,1.9c-0.5,0.3-1.1,0.3-1.6-0.1L38,73l-1.1-1.1c-0.4-0.4-0.5-1.1-0.1-1.6l1.8-2.6
	c-0.6-1.1-1.1-2.2-1.4-3.4L34,63.8c-0.6-0.1-1-0.6-1-1.2v-3.2c0-0.6,0.4-1.1,1-1.2l3.2-0.5c0.3-1.2,0.8-2.4,1.4-3.4l-1.9-2.7
	c-0.3-0.5-0.3-1.1,0.1-1.6l1.1-1.1l1.1-1.2c0.4-0.4,1.1-0.5,1.6-0.1l2.6,1.8c1.1-0.7,2.3-1.2,3.5-1.5l0.5-3.2c0.1-0.6,0.6-1,1.2-1
	h3.2c0.6,0,1.1,0.4,1.2,1l0.5,3.2c1.2,0.3,2.4,0.8,3.4,1.4l2.6-1.9c0.5-0.3,1.1-0.3,1.6,0.1l1.1,1.1l1.1,1.2
	c0.4,0.4,0.5,1.1,0.1,1.6l-1.9,2.6c0.6,1.1,1.1,2.2,1.4,3.4l3.2,0.5c0.6,0.1,1,0.6,1,1.2L67.1,60.9z M56.7,58l-2.5-2.5l-5.8,5.8
	l-2.4-2.5l-2.5,2.5l2.4,2.5l2.5,2.5l2.5-2.5L56.7,58z M63.9,29.1c0-0.8-0.4-1.6-1-2.1c-2.5-2-5.2-3.8-8.1-5.2
	c-0.1,0-0.1-0.1-0.1-0.2v-2.6c0.4-0.7,0.7-1.4,0.8-2.2c0.3,0,0.7-0.5,1.1-2c0.6-2,0-2.4-0.5-2.3c1.3-5.9-2-5.9-2-5.9
	C53.5,5,52,4.1,50.4,4.3c-1.7,0.2-3.3,0.2-5,0c0,0.5,0.2,0.9,0.6,1.2c-2.9,1.8-2.3,5.8-2,6.9c-0.5,0-1,0.4-0.5,2.3
	c0.4,1.5,0.8,1.9,1.1,2c0.1,0.8,0.4,1.5,0.8,2.2v2.6c0,0.1-0.1,0.2-0.1,0.2c-2.9,1.4-5.7,3.2-8.2,5.2c-0.6,0.5-1,1.3-1,2.1V33h27.8
	V29.1z M88.4,79.8c-0.1,0-0.1-0.1-0.1-0.2v-2.6c0.4-0.7,0.7-1.4,0.8-2.2c0.3,0,0.7-0.4,1.1-2c0.6-2,0-2.3-0.5-2.3
	c1.3-5.9-2-5.9-2-5.9c-0.6-1.5-2.1-2.4-3.7-2.1c-1.7,0.2-3.3,0.2-5,0c0,0.5,0.2,0.9,0.6,1.2c-2.9,1.8-2.3,5.8-2,6.9
	c-0.5,0-1,0.4-0.5,2.3c0.4,1.5,0.8,1.9,1.1,2c0.1,0.7,0.4,1.4,0.8,2.1v2.6c0,0.1-0.1,0.2-0.1,0.2C76,81.2,73.3,83,70.8,85
	c-0.6,0.5-1,1.3-1,2.1V91h27.8v-3.9c0-0.8-0.4-1.6-1-2.1C94,83,91.3,81.2,88.4,79.8z M30.2,87.1c0-0.8-0.4-1.6-1-2.1
	c-2.5-2-5.2-3.8-8.1-5.2c-0.1,0-0.1-0.1-0.1-0.2v-2.6c0.4-0.7,0.7-1.4,0.8-2.2c0.3,0,0.7-0.4,1.1-2c0.6-2,0-2.3-0.5-2.3
	c1.3-5.9-2-5.9-2-5.9c-0.6-1.5-2.1-2.4-3.7-2.1c-1.7,0.2-3.3,0.2-5,0c0,0.5,0.2,0.9,0.6,1.2c-2.9,1.8-2.3,5.8-2,6.9
	c-0.5,0-1,0.4-0.5,2.3c0.4,1.5,0.8,1.9,1.1,2c0.1,0.8,0.4,1.5,0.8,2.2v2.6c0,0.1-0.1,0.2-0.1,0.2C8.7,81.3,6,83,3.4,85
	c-0.6,0.5-1,1.3-1,2.1V91h27.8V87.1z"/>
</svg>
