<svg id="Layer_1" data-name="Layer 1" xmlns="http://www.w3.org/2000/svg" viewBox="0 0 85.05 95.41"><defs><style>.cls-1{fill:#3359df;}</style></defs><title>Artboard 1</title><path class="cls-1" d="M79.7,95.29H67.83a5.35,5.35,0,0,1-5.31-5.35V22.22a5.35,5.35,0,0,1,5.35-5.35H79.7A5.35,5.35,0,0,1,85,22.22V89.94A5.35,5.35,0,0,1,79.7,95.29Zm-72.63,0H18.94a5.35,5.35,0,0,0,5.35-5.35V73.66a5.35,5.35,0,0,0-5.35-5.35H7.07a5.35,5.35,0,0,0-5.35,5.35V89.94A5.35,5.35,0,0,0,7.07,95.29Zm47.59-38V89.94a5.35,5.35,0,0,1-5.35,5.35H37.45a5.35,5.35,0,0,1-5.34-5.35V57.29A5.35,5.35,0,0,1,37.45,52H49.32A5.35,5.35,0,0,1,54.66,57.29ZM47.21,59.4H39.52V87.84h7.66ZM1.66,43.75l10.4-10.41A22.22,22.22,0,0,1,15.52,6.53h0a22.2,22.2,0,1,1,4.6,34.88L9.72,51.81a5.69,5.69,0,0,1-8.05-8ZM21.2,32.27a14.2,14.2,0,1,0,0-20.1A14.2,14.2,0,0,0,21.2,32.27Z"/></svg>