<?xml version="1.0" encoding="utf-8"?>
<!-- Generator: Adobe Illustrator 21.0.0, SVG Export Plug-In . SVG Version: 6.00 Build 0)  -->
<svg version="1.1" id="Layer_1" xmlns="http://www.w3.org/2000/svg" xmlns:xlink="http://www.w3.org/1999/xlink" x="0px" y="0px"
	 viewBox="0 0 100 69.5" style="enable-background:new 0 0 100 69.5;" xml:space="preserve">
<style type="text/css">
	.st0{fill:#3359DF;}
</style>
<g>
	<path class="st0" d="M92.6,51.6v-5v-3.2v-9.2l0,0V8.5c0-4.7-3.8-8.5-8.5-8.5H52.4H15.9c-4.7,0-8.5,3.8-8.5,8.5v34.9v1.9v6.3
		c0,1.1-0.4,2.2-1.1,3L2,59.9c-0.3,0.4-0.5,0.9-0.5,1.4v2.5c0,3.2,2.6,5.8,5.8,5.8h85.6c3.2,0,5.8-2.6,5.8-5.8v-2.5
		c0-0.5-0.2-1-0.5-1.4l-4.3-5.3C93,53.8,92.6,52.7,92.6,51.6z M59.2,61.2c0,1.6-1.3,2.9-2.9,2.9H43.8c-1.6,0-2.9-1.3-2.9-2.9v-0.6
		h18.4L59.2,61.2L59.2,61.2z M84.2,46.6v5.5H15.9v-6.4v-2.2v-35l0,0h40.3h27.9l0,0v34.9v2.2v0.6l0,0L84.2,46.6L84.2,46.6z
		 M66.5,32.7c-0.6-1.3,0-2.8,1.3-3.4c1.3-0.6,2.8,0,3.4,1.3s0,2.8-1.3,3.4c-0.2,0.1-0.5,0.2-0.7,0.2C68,34.3,66.9,33.7,66.5,32.7z
		 M72.9,43.4c-0.2,1.1-1.1,2-2.2,2.2c-0.2,0-0.5,0-0.7,0c-1.4-0.2-2.4-1.5-2.1-2.9c0.2-1.4,1.5-2.4,2.9-2.1
		C72.2,40.7,73.1,42,72.9,43.4z M62.8,20.4c-1.1-0.7-2.6-0.5-3.4,0.6l-9.7,12.8c-1.9,0.1-3.7,1.2-4.8,2.9c-1.9,2.9-1,6.8,1.9,8.7
		s6.8,1,8.7-1.9c1.1-1.7,1.3-3.8,0.6-5.6l7.5-14.1C64.3,22.6,63.9,21.1,62.8,20.4z M52.4,41.4c-0.8,1.2-2.3,1.5-3.5,0.8
		c-1.2-0.8-1.5-2.3-0.8-3.5c0.8-1.2,2.3-1.5,3.5-0.8C52.8,38.7,53.1,40.2,52.4,41.4z M44.4,23.9c-1.6,0.6-3.1,1.3-4.5,2.3
		s-2.6,2.2-3.6,3.5c-0.2,0.3-0.5,0.7-0.7,1L35.4,31v0.1l0,0l0,0l0,0l-0.1,0.2l-0.4,0.6c-0.4,0.7-0.7,1.5-1,2.3c-0.6,1.6-1,3.3-1.1,5
		s0,3.4,0.4,5.1c0.4,1.5,1,3,1.7,4.4h-6c-0.4-1-0.8-2-1.1-3.1c-0.6-2.2-0.8-4.5-0.7-6.7c0.1-2.3,0.5-4.5,1.3-6.7
		c0.4-1.1,0.8-2.1,1.4-3.2l0.4-0.7l0.1-0.2l0.1-0.2l0.2-0.4c0.3-0.5,0.6-1,0.9-1.4c1.3-1.9,3-3.5,4.8-4.9s3.9-2.5,6-3.3
		c2.2-0.8,4.4-1.3,6.7-1.4s4.6,0.1,6.9,0.6c0.5,0.1,1,0.3,1.5,0.4c-0.4,0.3-0.8,0.7-1.1,1.1l-3.4,4.5c-1.2-0.2-2.4-0.3-3.6-0.3
		C47.7,23.1,46,23.4,44.4,23.9z"/>
</g>
</svg>
