<?xml version="1.0" encoding="utf-8"?>
<!-- Generator: Adobe Illustrator 21.0.0, SVG Export Plug-In . SVG Version: 6.00 Build 0)  -->
<svg version="1.1" id="Layer_1" xmlns="http://www.w3.org/2000/svg" xmlns:xlink="http://www.w3.org/1999/xlink" x="0px" y="0px"
	 viewBox="0 0 100 99" style="enable-background:new 0 0 100 99;" xml:space="preserve">
<style type="text/css">
	.st0{fill:#3359DF;}
</style>
<path class="st0" d="M98.8,49.4l-11.2-9.2c-0.4-0.3-1,0-1,0.5v4.8H73.7c-0.6-3.3-1.9-6.4-3.7-9l9.1-9.1l3.4,3.4c0.4,0.4,1,0.1,1-0.4
	L84.9,16c0-0.5-0.4-0.9-0.8-0.8l-14.4,1.4c-0.5,0.1-0.7,0.7-0.4,1l3.4,3.4l-9.1,9c-2.7-1.8-5.7-3.1-9-3.7V13.4h4.8
	c0.5,0,0.8-0.6,0.5-1L50.6,1.2c-0.3-0.4-0.9-0.4-1.2,0l-9.2,11.2c-0.3,0.4,0,1,0.5,1h4.8v12.9c-3.3,0.6-6.4,1.9-9,3.7l-9.1-9.1
	l3.4-3.4c0.4-0.4,0.1-1-0.4-1L16,15.1c-0.5,0-0.9,0.4-0.8,0.8l1.4,14.4c0.1,0.5,0.7,0.7,1,0.4l3.4-3.4l9.1,9.1
	c-1.8,2.7-3.1,5.7-3.7,9h-13v-4.8c0-0.5-0.6-0.8-1-0.5L1.2,49.4c-0.4,0.3-0.4,0.9,0,1.2l11.2,9.2c0.4,0.3,1,0,1-0.5v-4.8h12.9
	c0.6,3.3,1.9,6.4,3.7,9l-9.1,9.1l-3.4-3.4c-0.4-0.4-1-0.1-1,0.4L15.1,84c0,0.5,0.4,0.9,0.8,0.8l14.4-1.4c0.5-0.1,0.7-0.7,0.4-1
	L27.3,79l9.1-9.1c2.7,1.8,5.7,3.1,9,3.7v12.9h-4.8c-0.5,0-0.8,0.6-0.5,1l9.2,11.2c0.3,0.4,0.9,0.4,1.2,0l9.2-11.2c0.3-0.4,0-1-0.5-1
	h-4.8V73.7c3.3-0.6,6.4-1.9,9-3.7l9.1,9.1l-3.4,3.4c-0.4,0.4-0.1,1,0.4,1l14.4,1.4c0.5,0,0.9-0.4,0.8-0.8l-1.4-14.4
	c-0.1-0.5-0.7-0.7-1-0.4l-3.4,3.4L70,63.6c1.8-2.7,3.1-5.7,3.7-9h12.9v4.8c0,0.5,0.6,0.8,1,0.5l11.2-9.2
	C99.2,50.3,99.2,49.7,98.8,49.4z M43.5,34.9c-1.3,1.9-2.6,4.2-3.5,7.1h-4.3C37.4,38.9,40.2,36.4,43.5,34.9z M33.6,50
	c0-1.6,0.2-3.2,0.7-4.7h4.9c-0.2,1.4-0.4,3-0.4,4.7s0.1,3.2,0.4,4.7h-4.9C33.8,53.2,33.6,51.6,33.6,50z M35.6,58H40
	c0.9,2.9,2.2,5.3,3.5,7.1C40.2,63.6,37.4,61.1,35.6,58z M48.3,65.7c-1.6-1.6-3.6-4.2-4.9-7.8h4.9V65.7z M48.3,54.7h-5.8
	c-0.3-1.4-0.4-3-0.4-4.7s0.2-3.2,0.4-4.7h5.8V54.7z M48.3,42h-4.9c1.3-3.6,3.3-6.2,4.9-7.8V42z M64.4,42H60
	c-0.9-2.9-2.2-5.3-3.5-7.1C59.8,36.4,62.6,38.9,64.4,42z M51.7,34.3c1.6,1.6,3.6,4.2,4.9,7.8h-4.9V34.3z M51.7,45.3h5.8
	c0.3,1.4,0.4,3,0.4,4.7s-0.2,3.2-0.4,4.7h-5.8V45.3z M51.7,65.7V58h4.9C55.3,61.6,53.3,64.1,51.7,65.7z M56.5,65.1
	c1.3-1.9,2.6-4.2,3.5-7.1h4.3C62.6,61.1,59.8,63.6,56.5,65.1z M65.8,54.7h-4.9c0.2-1.4,0.4-3,0.4-4.7s-0.1-3.2-0.4-4.7h4.9
	c0.4,1.5,0.7,3,0.7,4.7C66.4,51.6,66.2,53.2,65.8,54.7z"/>
</svg>
